<svg width="93" height="33" viewBox="0 0 93 33" fill="none" xmlns="http://www.w3.org/2000/svg">
<g clip-path="url(#clip0_6501_135668)">
<path d="M51.2058 5.89835C51.2825 5.53025 51.3285 5.14682 51.3439 4.76338C51.3592 4.04252 51.2212 3.30632 50.8378 2.70816C50.1629 1.66522 48.8439 1.06706 47.6936 0.790986C46.2519 0.468901 44.7488 0.468902 43.2764 0.545589C42.0187 0.606939 40.7764 0.806324 39.5954 1.22043C38.6138 1.55786 37.6629 2.01798 36.7887 2.57013C34.5954 3.93516 33.6138 5.39221 32.9083 6.9873C32.9083 6.9873 26.3132 22.7235 25.1322 25.5456C24.7488 26.4965 24.4574 27.5395 24.5187 28.5671C24.5494 29.1039 24.6874 29.6714 24.9328 30.1468C25.2243 30.6836 25.6537 31.0671 26.1598 31.4045C27.1874 32.1253 28.4604 32.3554 29.6874 32.4474C31.0831 32.5548 32.5095 32.5241 33.8899 32.3401C35.1629 32.1714 36.4206 31.8186 37.5862 31.2665C38.1077 31.0211 38.5831 30.745 39.0739 30.4382C41.2672 29.0732 42.2488 27.6161 42.9543 26.021C43.0157 25.8983 50.1936 8.75111 50.4083 8.24498C50.6997 7.49344 51.0371 6.72657 51.2058 5.89835ZM44.4267 7.99958C44.0279 8.9505 37.0341 25.6376 36.9727 25.8063C36.9727 25.8063 36.1138 28.0609 33.1384 28.0456C32.3715 28.0456 31.1752 27.9536 30.8838 27.0793C30.7764 26.7419 30.8377 26.3278 30.9604 25.9904C30.9758 25.9597 38.8285 7.20203 38.8285 7.20203C38.8285 7.20203 39.6874 4.94743 42.6629 4.96277C43.4758 4.96277 44.7795 5.08546 44.9635 6.0824C45.0709 6.71123 44.6721 7.44743 44.4267 7.99958ZM61.0371 14.1192C59.9942 12.4628 59.5954 11.1131 59.4574 10.2388C59.35 9.76338 59.3654 9.1959 59.396 8.78179C59.4267 8.10694 59.6108 7.44743 59.9328 6.86461C59.9635 6.78792 60.0249 6.72657 60.0709 6.64988C60.4083 6.12841 60.9144 5.69896 61.4819 5.42289C62.0341 5.14682 62.6476 5.00878 63.2611 4.96277C63.4144 4.94743 63.5525 4.94743 63.7058 4.94743C64.2273 4.94743 64.8101 5.00878 65.2856 5.26952C65.6384 5.4689 65.8684 5.79099 65.9298 6.18976C65.9911 6.58853 65.8838 6.94129 65.7457 7.29405L64.6721 9.8554H70.1476C70.1476 9.8554 70.7457 8.44436 71.3132 7.07933C72.4328 4.44129 71.9881 3.10694 71.6353 2.55479C71.5586 2.44743 71.4666 2.34007 71.3746 2.24804C70.1016 0.944361 68.1844 0.606938 66.4359 0.499576C63.5678 0.315527 60.7457 0.89835 58.2457 2.30939C57.2181 2.89222 56.3132 3.61307 55.5617 4.47197C54.8715 5.26951 51.7273 9.42596 54.6874 15.2695C55.1322 15.9904 55.577 16.7112 56.0218 17.4321C56.666 18.4904 57.2948 19.5487 57.8776 20.6376C58.3991 21.6192 58.7825 22.6008 58.6292 23.7051C58.3377 25.699 56.9727 27.4014 54.9789 27.8462C54.1813 28.0303 53.2917 28.0916 52.5095 27.8615C52.0647 27.7235 51.6506 27.4474 51.4666 27.018C51.3439 26.7266 51.3285 26.4045 51.3746 26.0824C51.4973 25.4076 52.5862 22.9536 52.5862 22.9536H47.3868L45.8071 26.6959C45.4696 27.5241 45.3316 28.5517 45.485 29.4413C45.6537 30.3615 46.2058 31.0517 47.0341 31.4965C48.5678 32.3401 50.393 32.4781 52.1108 32.4321C54.5034 32.3707 56.8807 31.8953 58.9973 30.7757C61.2825 29.5487 63.1077 27.4934 64.0739 25.1008C64.1353 24.9321 64.1966 24.7787 64.258 24.61C65.669 20.699 62.9083 17.0793 61.0371 14.1192ZM28.5678 2.66215C28.1537 2.15602 27.5709 1.8186 26.942 1.58853C25.0402 0.913688 23.0463 0.959699 21.0525 0.959699C19.5647 0.959699 12.939 0.959699 12.939 0.959699L0.300894 31.1284C0.132183 31.5579 0.438931 32.018 0.883716 32.018H5.92973L11.1905 19.426L9.15059 17.9842H14.258C14.6108 18.0149 14.8715 18.337 14.8255 18.7051L12.8163 32.0026H18.6292C18.6292 32.0026 20.7917 17.0333 20.7917 16.9566C21.9574 16.5579 23.0617 15.929 24.0433 15.1928C24.6874 14.7174 25.2856 14.1652 25.8224 13.5824C26.758 12.5855 27.5402 11.4352 28.1384 10.2082C28.6138 9.21123 28.9666 8.15295 29.166 7.06399C29.4574 5.65295 29.5494 3.85847 28.5678 2.66215ZM22.939 8.01491C22.8009 8.87381 22.4482 9.77872 21.942 10.5916C21.0831 11.9873 19.7795 13.1376 18.2611 13.4597C17.8163 13.5517 17.3562 13.5824 16.9114 13.5824H13.6445L17.0647 5.43823C17.0647 5.42289 19.5494 5.43823 19.7795 5.45356C20.6077 5.48424 21.6966 5.45356 22.4022 5.94436C23.0617 6.37381 23.0617 7.30939 22.939 8.01491ZM91.6506 0.959699H77.3562L64.6874 31.1284C64.5187 31.5425 64.8255 32.0026 65.2703 32.0026H80.2703L82.1568 27.5548L72.2181 27.5701L75.623 19.426L73.5832 17.9842H82.5402L84.0279 14.426C84.1966 14.0118 83.8899 13.5517 83.4451 13.5517H78.0924L81.4973 5.43823H90.7304L92.2335 1.86461C92.4022 1.41982 92.0954 0.959699 91.6506 0.959699Z" fill="#090907"/>
</g>
<defs>
<clipPath id="clip0_6501_135668">
<rect width="93" height="33" fill="white"/>
</clipPath>
</defs>
</svg>
